<svg width="504" height="504" xmlns="http://www.w3.org/2000/svg">
  <path fill="none" d="M-1-1h582v402H-1z"/>
  <path fill="#ffc3a9" d="M470 307c0 121-98 169-219 169-120 0-217-48-217-169a218 218 0 0 1 436 0z"/>
  <path fill="#f2af97" d="M253 90c120 0 217 97 217 217 0 121-97 169-217 169"/>
  <path fill="#00233f" d="M166 234c-15 0-26 7-25 14l52-3c-1-7-13-12-27-11zm171 0c14 0 25 7 25 14l-52-4c0-6 12-11 27-10z"/>
  <path fill="#fcd4c5" d="M157 348c-35 0-62 8-62 18s28 4 62 4 61 5 61-4c0-10-28-18-61-18zm189 0c-34 0-61 8-61 18s28 4 61 4c35 0 62 5 62-4 1-10-27-18-62-18z"/>
  <path fill="#e59177" d="M196 335a26 26 0 1 1-51 0c0-13 11-25 25-25 15 0 26 12 26 25zm165 0a26 26 0 1 1-51 0c0-13 11-25 25-25 15 0 26 12 26 25z"/>
  <path stroke="null" fill="#1e4784" d="M196 326a26 24 0 1 1-51 0c0-13 11-24 25-24 15 1 26 11 26 24z"/>
  <path stroke="null" fill="#00233f" d="M170 303c15 0 26 11 26 26 0 14-11 26-26 26"/>
  <path stroke="null" fill="#1e4784" d="M361 325a26 23 0 1 1-51 0c0-12 11-23 25-23 15 1 26 11 26 23z"/>
  <path stroke="null" fill="#00233f" d="M335 303c15 0 26 11 26 25 0 13-11 24-26 24"/>
  <path fill="#1e4784" d="M334 108c0 18-37 16-83 16s-82 2-82-16 37-32 82-32 83 14 83 32z"/>
  <path fill="#00233f" d="M334 108c0 18-37 16-83 16s-82 2-82-16"/>
  <path fill="#1e4784" d="M278 78c-24-4-42-23-40-42 0-3 2-6 3-8-11 5-19 15-21 27a35 35 0 0 0 65 23h-7z"/>
  <path fill="#a51339" d="M312 390c0 13-27 47-61 47s-61-34-61-47 28-7 61-7 61-5 61 7z"/>
  <path fill="#6b0525" d="M191 390c0-12 27-7 61-7s61-5 61 7"/>
  <ellipse fill="#ffc3a9" ry="44" rx="45" cy="246" cx="45"/>
  <ellipse fill="#f2af97" ry="44" rx="45" cy="246" cx="459"/>
</svg>